<?xml version="1.0" encoding="UTF-8"?>
<svg id="uuid-d48ff757-c641-4bf7-81eb-e0cc10182795" data-name="Layer 3" xmlns="http://www.w3.org/2000/svg" viewBox="0 0 573.49 357.04">
  <defs>
    <style>
      .uuid-cbf8c4f5-a994-4454-a5aa-8bbe9ec84bb7 {
        fill: #fff;
      }
    </style>
  </defs>
  <g>
    <path class="uuid-cbf8c4f5-a994-4454-a5aa-8bbe9ec84bb7" d="M299.26,236.95c-7.09,0-13.69-.52-19.83-1.57-6.14-1.04-11.52-2.84-16.16-5.39-4.64-2.54-8.28-6.08-10.92-10.63-2.65-4.54-3.97-10.25-3.97-17.14v-.82c0-.35.05-.72.15-1.12h31.28c-.1.4-.15.78-.15,1.12v.97c0,2.99.7,5.29,2.1,6.88,1.4,1.6,3.37,2.67,5.91,3.22s5.41.82,8.61.82c1.2,0,2.47-.02,3.82-.07s2.64-.2,3.89-.45c1.25-.25,2.4-.62,3.44-1.12,1.05-.5,1.87-1.17,2.47-2.02.6-.85.9-1.92.9-3.22,0-1.9-.85-3.39-2.54-4.49-1.7-1.1-3.99-2.04-6.88-2.84-2.9-.8-6.14-1.55-9.73-2.25-3.59-.7-7.33-1.52-11.22-2.47-3.89-.95-7.63-2.17-11.22-3.67-3.59-1.5-6.84-3.42-9.73-5.76-2.9-2.34-5.19-5.29-6.89-8.83-1.7-3.54-2.54-7.81-2.54-12.8,0-5.99,1.25-11.08,3.74-15.27,2.49-4.19,5.91-7.58,10.25-10.18s9.28-4.49,14.82-5.69c5.54-1.2,11.35-1.8,17.44-1.8s12,.62,17.44,1.87c5.44,1.25,10.25,3.17,14.44,5.76,4.19,2.59,7.48,5.89,9.88,9.88,2.39,3.99,3.64,8.73,3.74,14.22v1.8h-30.98v-.6c0-1.8-.45-3.49-1.35-5.09s-2.32-2.9-4.26-3.89c-1.95-1-4.52-1.5-7.71-1.5-2.99,0-5.51.3-7.56.9-2.05.6-3.57,1.42-4.56,2.47-1,1.05-1.5,2.17-1.5,3.37,0,1.9.85,3.44,2.54,4.64,1.7,1.2,3.99,2.2,6.89,2.99,2.89.8,6.14,1.55,9.73,2.24,3.59.7,7.33,1.47,11.22,2.32s7.63,1.97,11.22,3.37c3.59,1.4,6.83,3.22,9.73,5.46,2.89,2.24,5.19,5.01,6.88,8.31,1.7,3.29,2.54,7.33,2.54,12.12,0,8.48-1.97,15.36-5.91,20.65-3.94,5.29-9.33,9.15-16.16,11.6-6.84,2.45-14.59,3.67-23.27,3.67Z"/>
    <path class="uuid-cbf8c4f5-a994-4454-a5aa-8bbe9ec84bb7" d="M361.07,235.15v-102.97h64.5c7.68,0,14.09,1.55,19.23,4.64,5.14,3.09,9,7.14,11.6,12.12,2.59,4.99,3.89,10.38,3.89,16.16,0,6.59-1.55,12.45-4.64,17.59-3.09,5.14-7.29,9.26-12.57,12.35l20.2,40.11h-37.12l-15.71-34.57h-16.31v34.57h-33.07ZM394.14,177.68h23.2c2.59,0,4.79-1.02,6.58-3.07,1.8-2.04,2.7-4.76,2.7-8.15,0-2.1-.4-3.94-1.2-5.54-.8-1.59-1.9-2.87-3.29-3.82-1.4-.95-2.99-1.42-4.79-1.42h-23.2v22Z"/>
    <path class="uuid-cbf8c4f5-a994-4454-a5aa-8bbe9ec84bb7" d="M502.2,235.15v-76.63h-33.82v-26.34h100.57v26.34h-33.67v76.63h-33.07Z"/>
  </g>
  <g>
    <path class="uuid-cbf8c4f5-a994-4454-a5aa-8bbe9ec84bb7" d="M254.52,269.45v-22.2h11.65c1.47,0,2.68.27,3.64.82.96.55,1.68,1.3,2.17,2.25s.73,2.03.73,3.23c0,1.58-.36,2.91-1.08,4s-1.68,1.86-2.86,2.31l4.73,9.58h-2.82l-4.43-9.12h-9.16v9.12h-2.56ZM257.08,258.12h8.83c1.32,0,2.35-.4,3.11-1.21.76-.81,1.13-1.92,1.13-3.35,0-.86-.16-1.59-.49-2.2-.32-.61-.8-1.07-1.42-1.41s-1.4-.5-2.33-.5h-8.83v8.67Z"/>
    <path class="uuid-cbf8c4f5-a994-4454-a5aa-8bbe9ec84bb7" d="M283.77,269.84c-1.62,0-2.99-.32-4.11-.95-1.12-.64-1.97-1.61-2.56-2.93s-.87-2.99-.87-5.01.29-3.73.87-5.03,1.44-2.28,2.59-2.91c1.14-.64,2.57-.95,4.27-.95,1.57,0,2.9.31,3.96.94,1.07.63,1.88,1.53,2.43,2.72.55,1.19.83,2.64.83,4.37v1.49h-12.52c0,1.49.2,2.71.62,3.66.41.95,1,1.63,1.76,2.05.76.42,1.71.63,2.83.63.82,0,1.54-.11,2.15-.32.62-.22,1.12-.51,1.52-.89.4-.38.71-.83.92-1.34.22-.52.32-1.06.32-1.62h2.27c0,.84-.16,1.64-.47,2.38-.31.74-.77,1.4-1.36,1.96-.59.56-1.34,1-2.25,1.31-.91.31-1.97.47-3.2.47ZM278.66,259.71h10.09c0-1.08-.12-1.98-.37-2.7s-.59-1.31-1.02-1.75-.94-.76-1.54-.95c-.59-.19-1.26-.29-1.99-.29-1.06,0-1.96.2-2.72.6-.76.4-1.33,1.02-1.73,1.86-.4.84-.64,1.92-.73,3.24Z"/>
    <path class="uuid-cbf8c4f5-a994-4454-a5aa-8bbe9ec84bb7" d="M295.33,269.45v-15.05h-2.53v-1.97h2.53v-2.98c0-.6.09-1.19.27-1.75.18-.56.52-1.02,1.02-1.38.5-.36,1.2-.53,2.1-.53.28,0,.56.01.84.03s.55.05.79.09c.25.05.47.11.66.19v1.65h-1.71c-.56,0-.98.14-1.25.42-.27.28-.4.69-.4,1.23v3.01h3.36v1.97h-3.36v15.05h-2.33Z"/>
    <path class="uuid-cbf8c4f5-a994-4454-a5aa-8bbe9ec84bb7" d="M303.38,269.45v-17.02h1.88l.19,2.85h.23c.15-.52.38-1.02.68-1.52.3-.5.71-.9,1.23-1.23.52-.33,1.18-.49,1.97-.49.3,0,.58.03.84.08s.45.1.58.14v2.14h-1c-.76,0-1.4.14-1.94.4s-.98.65-1.33,1.15c-.35.5-.6,1.06-.76,1.7-.16.64-.24,1.3-.24,1.99v9.81h-2.33Z"/>
    <path class="uuid-cbf8c4f5-a994-4454-a5aa-8bbe9ec84bb7" d="M313.64,248.93v-2.88h2.33v2.88h-2.33ZM313.64,269.45v-17.02h2.33v17.02h-2.33Z"/>
    <path class="uuid-cbf8c4f5-a994-4454-a5aa-8bbe9ec84bb7" d="M323.44,275.34c-.82,0-1.58-.18-2.28-.53-.7-.36-1.26-.85-1.67-1.49-.41-.64-.61-1.38-.61-2.21,0-.95.25-1.76.76-2.43.51-.67,1.15-1.16,1.92-1.49-.56-.24-.99-.59-1.29-1.07-.3-.47-.45-.99-.45-1.55,0-.73.27-1.36.81-1.89s1.2-.88,1.97-1.05c-.71-.47-1.28-1.08-1.7-1.81-.42-.73-.63-1.52-.63-2.36,0-1.05.25-1.99.75-2.8.5-.81,1.25-1.45,2.25-1.91,1-.47,2.26-.7,3.77-.7.71,0,1.38.05,1.99.16.62.11,1.17.27,1.67.49.75-.28,1.34-.69,1.75-1.21.41-.53.68-1.12.81-1.76h2.33c-.02.6-.17,1.19-.45,1.75s-.67,1.04-1.16,1.42-1.09.64-1.78.74c.56.52.97,1.1,1.23,1.75s.39,1.34.39,2.07c0,1.02-.24,1.93-.73,2.73-.49.81-1.22,1.45-2.2,1.93-.98.47-2.24.71-3.77.71h-2.69c-.65,0-1.18.12-1.59.37-.41.25-.61.66-.61,1.25,0,.5.21.88.65,1.16s.97.42,1.62.42h6.67c1.25,0,2.27.42,3.06,1.26.79.84,1.18,1.9,1.18,3.17,0,.9-.23,1.73-.68,2.47-.45.74-1.07,1.33-1.86,1.76-.79.43-1.71.65-2.77.65h-6.63ZM323.96,273.49h6.05c.56,0,1.07-.12,1.52-.36.45-.24.81-.57,1.08-.99s.4-.87.4-1.34c0-.82-.24-1.48-.71-1.97s-1.07-.74-1.78-.74h-6.57c-.74,0-1.37.26-1.91.79s-.81,1.17-.81,1.92c0,.82.26,1.47.79,1.96.53.49,1.17.73,1.93.73ZM327.03,260.97c1.51,0,2.63-.32,3.35-.95s1.08-1.49,1.08-2.57-.36-1.97-1.08-2.6-1.84-.95-3.35-.95-2.57.32-3.3.95-1.1,1.5-1.1,2.6c0,.67.16,1.28.49,1.81.32.54.81.96,1.47,1.26s1.47.45,2.44.45Z"/>
    <path class="uuid-cbf8c4f5-a994-4454-a5aa-8bbe9ec84bb7" d="M344.57,269.84c-1.62,0-2.99-.32-4.11-.95-1.12-.64-1.97-1.61-2.56-2.93s-.87-2.99-.87-5.01.29-3.73.87-5.03,1.44-2.28,2.59-2.91,2.57-.95,4.27-.95c1.57,0,2.9.31,3.96.94,1.07.63,1.88,1.53,2.43,2.72.55,1.19.83,2.64.83,4.37v1.49h-12.52c0,1.49.2,2.71.62,3.66.41.95,1,1.63,1.76,2.05.76.42,1.71.63,2.83.63.82,0,1.54-.11,2.15-.32.62-.22,1.12-.51,1.52-.89.4-.38.71-.83.92-1.34.22-.52.32-1.06.32-1.62h2.27c0,.84-.16,1.64-.47,2.38-.31.74-.77,1.4-1.36,1.96-.59.56-1.34,1-2.25,1.31-.91.31-1.97.47-3.2.47ZM339.46,259.71h10.09c0-1.08-.12-1.98-.37-2.7s-.59-1.31-1.02-1.75-.94-.76-1.54-.95c-.59-.19-1.26-.29-1.99-.29-1.06,0-1.96.2-2.72.6-.76.4-1.33,1.02-1.73,1.86-.4.84-.64,1.92-.73,3.24Z"/>
    <path class="uuid-cbf8c4f5-a994-4454-a5aa-8bbe9ec84bb7" d="M355.51,269.45v-17.02h1.88l.19,2.85h.23c.15-.52.38-1.02.68-1.52.3-.5.71-.9,1.23-1.23.52-.33,1.18-.49,1.97-.49.3,0,.58.03.84.08s.45.1.58.14v2.14h-1c-.76,0-1.4.14-1.94.4s-.98.65-1.33,1.15c-.35.5-.6,1.06-.76,1.7-.16.64-.24,1.3-.24,1.99v9.81h-2.33Z"/>
    <path class="uuid-cbf8c4f5-a994-4454-a5aa-8bbe9ec84bb7" d="M369.68,269.84c-.67,0-1.33-.08-1.97-.24-.65-.16-1.22-.42-1.73-.78-.51-.36-.91-.83-1.21-1.44s-.45-1.35-.45-2.23c0-1.16.29-2.12.86-2.86.57-.74,1.38-1.33,2.41-1.75,1.03-.42,2.26-.71,3.67-.86,1.41-.15,2.95-.23,4.61-.23v-2.17c0-.69-.12-1.28-.37-1.76-.25-.48-.68-.86-1.29-1.13-.62-.27-1.48-.4-2.6-.4s-1.93.14-2.56.42-1.06.64-1.31,1.09-.37.93-.37,1.47v.52h-2.23c-.02-.11-.03-.21-.03-.32v-.39c0-1.08.28-1.96.84-2.65.56-.69,1.36-1.21,2.39-1.55,1.04-.35,2.22-.52,3.56-.52s2.5.2,3.43.6c.93.4,1.64.97,2.14,1.7.5.74.74,1.62.74,2.66v9.77c0,.41.08.69.24.85.16.17.38.24.66.24h1.36v1.49c-.32.13-.66.24-1.02.33-.36.09-.73.13-1.12.13-.56,0-1.01-.12-1.34-.36-.33-.24-.57-.57-.71-1-.14-.43-.23-.9-.27-1.42h-.23c-.41.58-.93,1.09-1.57,1.51s-1.33.74-2.09.97c-.76.23-1.57.34-2.43.34ZM370.17,267.86c.71,0,1.4-.12,2.07-.36s1.27-.57,1.81-.99c.54-.42.97-.92,1.31-1.5s.5-1.23.5-1.94v-1.75c-2.01,0-3.68.11-5.03.32-1.35.21-2.36.59-3.04,1.13-.68.54-1.02,1.3-1.02,2.27,0,.64.15,1.18.44,1.6s.7.73,1.21.93c.52.19,1.1.29,1.75.29Z"/>
    <path class="uuid-cbf8c4f5-a994-4454-a5aa-8bbe9ec84bb7" d="M389.1,269.84c-1.57,0-2.91-.32-4-.97s-1.91-1.63-2.48-2.94c-.56-1.31-.84-2.98-.84-4.98s.28-3.63.84-4.95c.56-1.32,1.4-2.3,2.51-2.96s2.47-.99,4.09-.99c1.19,0,2.2.16,3.03.47s1.51.76,2.04,1.34.91,1.28,1.15,2.1c.24.82.36,1.74.36,2.75h-2.3c0-1.1-.14-1.99-.44-2.67-.29-.68-.76-1.19-1.39-1.52-.64-.33-1.47-.5-2.51-.5-.97,0-1.83.21-2.57.65-.75.43-1.33,1.12-1.75,2.05-.42.94-.63,2.22-.63,3.84v.78c0,1.53.19,2.78.58,3.73.39.96.95,1.67,1.7,2.12.74.45,1.63.68,2.67.68s1.94-.19,2.57-.57,1.09-.92,1.38-1.62c.28-.7.42-1.54.42-2.51h2.27c0,.91-.12,1.76-.36,2.57s-.62,1.52-1.15,2.12-1.22,1.09-2.07,1.44-1.89.53-3.12.53Z"/>
    <path class="uuid-cbf8c4f5-a994-4454-a5aa-8bbe9ec84bb7" d="M399.22,248.93v-2.88h2.33v2.88h-2.33ZM399.22,269.45v-17.02h2.33v17.02h-2.33Z"/>
    <path class="uuid-cbf8c4f5-a994-4454-a5aa-8bbe9ec84bb7" d="M412.85,269.84c-1.64,0-3.04-.32-4.19-.95-1.15-.64-2.03-1.61-2.62-2.93-.59-1.32-.89-2.99-.89-5.01s.3-3.73.89-5.03c.59-1.31,1.47-2.28,2.62-2.91,1.15-.64,2.55-.95,4.19-.95s3.09.32,4.22.95c1.13.64,1.99,1.61,2.59,2.91.59,1.31.89,2.98.89,5.03s-.3,3.7-.89,5.01c-.59,1.32-1.46,2.29-2.59,2.93-1.13.64-2.54.95-4.22.95ZM412.85,267.86c1.14,0,2.1-.23,2.88-.68.78-.45,1.37-1.16,1.78-2.12.41-.96.62-2.21.62-3.73v-.78c0-1.53-.21-2.78-.62-3.74-.41-.96-1-1.67-1.78-2.12-.78-.45-1.74-.68-2.88-.68s-2.1.23-2.88.68c-.78.45-1.37,1.16-1.78,2.12-.41.96-.62,2.21-.62,3.74v.78c0,1.53.2,2.78.62,3.73.41.96,1,1.67,1.78,2.12.78.45,1.74.68,2.88.68ZM411.36,250.32l2.88-4.27h2.81l.03.09-3.62,4.18h-2.1Z"/>
    <path class="uuid-cbf8c4f5-a994-4454-a5aa-8bbe9ec84bb7" d="M424.11,269.45v-17.02h1.84l.23,2.68h.23c.47-.78,1.01-1.38,1.62-1.83.6-.44,1.26-.76,1.96-.95.7-.19,1.45-.29,2.25-.29,1.08,0,2.02.18,2.83.53.81.36,1.44.93,1.89,1.73.45.8.68,1.89.68,3.27v11.87h-2.33v-11.65c0-.76-.1-1.37-.29-1.85s-.46-.85-.81-1.12-.75-.46-1.21-.57c-.46-.11-.98-.16-1.54-.16-.86,0-1.68.21-2.44.63-.77.42-1.39,1.02-1.86,1.8-.47.78-.71,1.73-.71,2.85v10.06h-2.33Z"/>
    <path class="uuid-cbf8c4f5-a994-4454-a5aa-8bbe9ec84bb7" d="M449.61,269.45v-22.2h2.56v22.2h-2.56Z"/>
    <path class="uuid-cbf8c4f5-a994-4454-a5aa-8bbe9ec84bb7" d="M457.34,269.45v-17.02h1.84l.23,2.68h.23c.47-.78,1.01-1.38,1.62-1.83.6-.44,1.26-.76,1.96-.95.7-.19,1.45-.29,2.25-.29,1.08,0,2.02.18,2.83.53.81.36,1.44.93,1.89,1.73.45.8.68,1.89.68,3.27v11.87h-2.33v-11.65c0-.76-.1-1.37-.29-1.85s-.46-.85-.81-1.12-.75-.46-1.21-.57c-.46-.11-.98-.16-1.54-.16-.86,0-1.68.21-2.44.63-.77.42-1.39,1.02-1.86,1.8-.47.78-.71,1.73-.71,2.85v10.06h-2.33Z"/>
    <path class="uuid-cbf8c4f5-a994-4454-a5aa-8bbe9ec84bb7" d="M480.99,269.84c-1.4,0-2.61-.31-3.62-.94-1.01-.63-1.79-1.6-2.31-2.93-.53-1.33-.79-3.06-.79-5.2,0-2,.27-3.65.81-4.93.54-1.28,1.31-2.24,2.32-2.87,1-.62,2.18-.94,3.54-.94.73,0,1.42.09,2.07.26.65.17,1.23.45,1.75.83.52.38.97.88,1.36,1.5h.19v-8.57h2.33v23.39h-1.81l-.26-2.49h-.23c-.6.97-1.38,1.69-2.31,2.17-.94.47-1.95.71-3.03.71ZM481.38,267.8c1.16,0,2.11-.26,2.83-.78.72-.52,1.25-1.26,1.59-2.23.33-.97.5-2.16.5-3.56v-.58c0-1.34-.13-2.44-.4-3.3-.27-.86-.64-1.53-1.1-2.01-.46-.47-.98-.8-1.54-.99-.56-.18-1.13-.27-1.72-.27-1.08,0-1.98.22-2.7.66s-1.26,1.14-1.62,2.09c-.36.95-.53,2.19-.53,3.72v.81c0,1.6.19,2.87.58,3.8s.93,1.61,1.63,2.02c.7.41,1.53.61,2.48.61Z"/>
    <path class="uuid-cbf8c4f5-a994-4454-a5aa-8bbe9ec84bb7" d="M498.43,269.84c-1.62,0-2.92-.41-3.92-1.23-.99-.82-1.49-2.25-1.49-4.3v-11.87h2.33v11.65c0,.75.1,1.37.29,1.84s.46.85.81,1.12c.34.27.75.46,1.21.57.46.11.96.17,1.5.17.86,0,1.68-.21,2.44-.63.77-.42,1.39-1.02,1.86-1.81.47-.78.71-1.73.71-2.83v-10.07h2.33v17.02h-1.81l-.26-2.68h-.23c-.47.78-1.01,1.38-1.6,1.83-.59.45-1.24.76-1.94.96-.7.19-1.45.29-2.25.29Z"/>
    <path class="uuid-cbf8c4f5-a994-4454-a5aa-8bbe9ec84bb7" d="M516.75,269.84c-1.12,0-2.11-.11-2.98-.34s-1.58-.56-2.15-1-1-.97-1.29-1.6c-.29-.62-.44-1.35-.44-2.17v-.27c0-.1.01-.19.03-.28h2.3c-.02.11-.03.2-.03.28v.21c.02.84.23,1.49.61,1.95.39.47.94.79,1.65.99.71.19,1.53.29,2.46.29.8,0,1.52-.11,2.15-.34s1.14-.56,1.52-.99c.38-.43.57-.96.57-1.59,0-.8-.24-1.4-.73-1.81s-1.12-.73-1.89-.95-1.59-.47-2.43-.73c-.69-.19-1.37-.4-2.04-.63s-1.28-.51-1.83-.86c-.55-.34-.99-.78-1.31-1.33-.32-.54-.49-1.22-.49-2.04,0-.71.15-1.35.44-1.91.29-.56.71-1.04,1.26-1.44.55-.4,1.22-.71,2.02-.93.8-.21,1.7-.32,2.72-.32,1.12,0,2.08.13,2.88.39.8.26,1.45.61,1.94,1.05s.86.94,1.1,1.49.36,1.13.36,1.73c0,.09,0,.19-.02.29s-.01.2-.01.29h-2.3v-.42c0-.45-.11-.89-.34-1.33-.23-.43-.63-.8-1.2-1.1-.57-.3-1.42-.45-2.54-.45-.67,0-1.25.06-1.73.18-.49.12-.9.29-1.23.5s-.58.48-.74.79c-.16.31-.24.67-.24,1.08,0,.63.2,1.11.6,1.44s.92.6,1.57.81c.65.2,1.34.43,2.07.66.73.21,1.48.44,2.25.68.76.24,1.47.53,2.12.87.65.35,1.16.81,1.55,1.38.39.57.58,1.32.58,2.25,0,.86-.17,1.62-.52,2.28-.35.66-.82,1.2-1.42,1.64-.6.43-1.32.76-2.15.97s-1.73.32-2.7.32Z"/>
    <path class="uuid-cbf8c4f5-a994-4454-a5aa-8bbe9ec84bb7" d="M530.86,269.8c-.78,0-1.4-.14-1.86-.42-.46-.28-.79-.66-.97-1.16-.18-.5-.27-1.04-.27-1.65v-12.17h-2.3v-1.97h2.3l.45-4.73h1.88v4.73h3.27v1.97h-3.27v11.75c0,.58.08,1.01.24,1.29.16.28.52.42,1.08.42h1.94v1.49c-.22.09-.47.17-.76.24s-.59.13-.89.16c-.3.03-.58.05-.84.05Z"/>
    <path class="uuid-cbf8c4f5-a994-4454-a5aa-8bbe9ec84bb7" d="M536.46,269.45v-17.02h1.88l.19,2.85h.23c.15-.52.38-1.02.68-1.52.3-.5.71-.9,1.23-1.23.52-.33,1.18-.49,1.97-.49.3,0,.58.03.84.08s.45.1.58.14v2.14h-1c-.76,0-1.4.14-1.94.4s-.98.65-1.33,1.15c-.35.5-.6,1.06-.76,1.7-.16.64-.24,1.3-.24,1.99v9.81h-2.33Z"/>
    <path class="uuid-cbf8c4f5-a994-4454-a5aa-8bbe9ec84bb7" d="M546.71,248.93v-2.88h2.33v2.88h-2.33ZM546.71,269.45v-17.02h2.33v17.02h-2.33Z"/>
    <path class="uuid-cbf8c4f5-a994-4454-a5aa-8bbe9ec84bb7" d="M557.84,269.84c-.67,0-1.33-.08-1.97-.24-.65-.16-1.22-.42-1.73-.78-.51-.36-.91-.83-1.21-1.44s-.45-1.35-.45-2.23c0-1.16.29-2.12.86-2.86.57-.74,1.38-1.33,2.41-1.75,1.03-.42,2.26-.71,3.67-.86,1.41-.15,2.95-.23,4.61-.23v-2.17c0-.69-.12-1.28-.37-1.76-.25-.48-.68-.86-1.29-1.13-.62-.27-1.48-.4-2.6-.4s-1.93.14-2.56.42-1.06.64-1.31,1.09-.37.93-.37,1.47v.52h-2.23c-.02-.11-.03-.21-.03-.32v-.39c0-1.08.28-1.96.84-2.65.56-.69,1.36-1.21,2.39-1.55,1.04-.35,2.22-.52,3.56-.52s2.5.2,3.43.6c.93.4,1.64.97,2.14,1.7.5.74.74,1.62.74,2.66v9.77c0,.41.08.69.24.85.16.17.38.24.66.24h1.36v1.49c-.32.13-.66.24-1.02.33-.36.09-.73.13-1.12.13-.56,0-1.01-.12-1.34-.36-.33-.24-.57-.57-.71-1-.14-.43-.23-.9-.27-1.42h-.23c-.41.58-.93,1.09-1.57,1.51s-1.33.74-2.09.97c-.76.23-1.57.34-2.43.34ZM558.33,267.86c.71,0,1.4-.12,2.07-.36s1.27-.57,1.81-.99c.54-.42.97-.92,1.31-1.5s.5-1.23.5-1.94v-1.75c-2.01,0-3.68.11-5.03.32-1.35.21-2.36.59-3.04,1.13-.68.54-1.02,1.3-1.02,2.27,0,.64.15,1.18.44,1.6s.7.73,1.21.93c.52.19,1.1.29,1.75.29Z"/>
    <path class="uuid-cbf8c4f5-a994-4454-a5aa-8bbe9ec84bb7" d="M571.05,269.45v-23.39h2.33v23.39h-2.33Z"/>
  </g>
  <path class="uuid-cbf8c4f5-a994-4454-a5aa-8bbe9ec84bb7" d="M58.36,224.73l11.2,19.35c1.05,1.58,2.58,2.4,4.21,2.4h.31l.59-.08c6.47-1.32,13.03-2.93,19.55-4.79l9.78-2.96c1.24-.47,2.23-.81,3.28-1.14l3.53-1.28c1.05-.38,2.1-.76,3.11-1.2l4.68-1.85,11.1-4.89c1.09-.48,2.12-.97,3.14-1.45,12.84-6.33,24.92-13.79,35.95-22.19.5-.38.99-.76,1.49-1.15l-.16.24c-.96,1.42-1.93,2.86-2.98,4.27-2.56,3.62-5.23,7.18-8.03,10.73l-1.03,1.26c-1.22,1.5-2.45,3.02-3.76,4.51-1.93,2.35-3.9,4.62-5.94,6.87-22.57,25.25-46.45,43.33-53.24,48.27-1.99,1.58-2.52,4.18-1.38,6.26l10.24,17.71-91.09.1,45.44-78.99Z"/>
  <path class="uuid-cbf8c4f5-a994-4454-a5aa-8bbe9ec84bb7" d="M17.61,246.44c-8.47-15.74-12.91-33.38-12.91-51.47,0-58.26,46.87-106.6,104.87-108.66l8.25,14.23c-11.88,9.81-28.43,24.66-43.71,42.51-14.65,17.02-26.03,34.2-33.81,51.08l-.54.57v.46c-9.31,15.92-16.74,33.14-22.15,51.29Z"/>
  <path class="uuid-cbf8c4f5-a994-4454-a5aa-8bbe9ec84bb7" d="M104.33,284.85c11.66-8.82,31.89-25.34,51.28-47,16.64-18.58,29.41-37.4,37.95-55.95l.58-.55v-.65c6.31-12.23,11.15-25.04,14.45-38.2,8.68,15.9,13.23,33.75,13.23,52.11,0,59.3-47.75,107.67-106.85,108.7l-10.64-18.46Z"/>
  <path class="uuid-cbf8c4f5-a994-4454-a5aa-8bbe9ec84bb7" d="M61.11,176.36c1.15-1.79,2.3-3.58,3.57-5.36.9-1.34,1.83-2.66,2.75-3.92,1.25-1.79,2.58-3.58,3.9-5.31,1.59-2.13,3.22-4.15,4.91-6.25,1.69-2.09,3.38-4.13,5.18-6.23,16.14-18.86,33.73-34.28,45.65-43.89,1.83-1.29,2.39-4.05,1.12-6.16l-7.45-12.87,91.14-.11-45.49,78.95-12.85-22.2c-.7-1.41-2.33-2.4-4.16-2.4h-.31l-.63.09c-6.88,1.41-13.57,3.04-19.95,4.85l-2.48.71c-.47.11-1.14.33-1.74.56l-5.61,1.77c-.93.28-1.96.65-2.99,1.01l-2.71.96c-1.42.49-2.85.99-4.15,1.55l-4.69,1.86-11.21,4.95c-1.09.51-2.12,1-3.08,1.47-10.48,5.15-20.45,11.05-29.74,17.6.34-.54.69-1.08,1.05-1.63Z"/>
</svg>