<?xml version="1.0" encoding="UTF-8"?>
<svg id="uuid-24a47530-d164-40db-8ee2-5389c9ed711c" data-name="Layer 1" xmlns="http://www.w3.org/2000/svg" viewBox="0 0 573.49 227.13">
  <defs>
    <style>
      .uuid-af25c30c-961b-4165-95ad-eea58f7b7aec {
        fill: #14387f;
      }

      .uuid-7b9f5c0e-6ae1-4cfd-affd-9d9eddd358f5 {
        fill: #2580c3;
      }
    </style>
  </defs>
  <g>
    <path class="uuid-af25c30c-961b-4165-95ad-eea58f7b7aec" d="M189.61,97.87c-.04.07-.07.14-.11.2-9.33,20.45-23.13,39.21-37.37,55.13-21.76,24.32-44.55,42-54.01,48.93l14.23,24.59.17.29-107.83.12,53.81-93.45,15.37,26.56c6.42-1.31,12.82-2.87,19.16-4.69l2.43-.68c.8-.24,1.6-.5,2.4-.76l4.81-1.53c1.6-.53,3.17-1.11,4.77-1.67,1.59-.56,3.2-1.12,4.75-1.75l4.73-1.86,4.68-1.99,2.34-1.01,2.31-1.08c1.53-.73,3.11-1.42,4.63-2.19,12.23-6.03,24.07-13.21,35.13-21.65,5.53-4.23,10.85-8.78,15.93-13.64,2.53-2.44,5.02-4.95,7.38-7.57.1-.11.19-.21.29-.32Z"/>
    <path class="uuid-7b9f5c0e-6ae1-4cfd-affd-9d9eddd358f5" d="M124.18,20.25c-12.32,9.91-29.87,25.35-46.28,44.48-12.79,14.88-24.89,32-33.32,50.5t0,.02s-.02.03-.03.05c-13.35,22.76-20.89,44.85-25.12,61.79C7.15,158.95,0,137.1,0,113.56,0,50.85,50.84,0,113.56,0c1.7,0,3.39.04,5.07.11h-6.11s11.65,20.14,11.65,20.14Z"/>
    <path class="uuid-7b9f5c0e-6ae1-4cfd-affd-9d9eddd358f5" d="M226.78,113.16c0,62.72-50.85,113.56-113.56,113.56-.29,0-.58,0-.86,0l-14.23-24.59c9.45-6.93,32.25-24.61,54.01-48.93,14.24-15.91,28.05-34.68,37.37-55.13.04-.07.07-.14.11-.2,9.66-18.52,14.5-35.81,16.88-49.51,12.8,18.37,20.3,40.72,20.3,64.8Z"/>
    <path class="uuid-af25c30c-961b-4165-95ad-eea58f7b7aec" d="M220.36,0l-53.82,93.45-17.04-29.45c-6.57,1.33-13.1,2.92-19.58,4.78l-2.43.68c-.8.23-1.59.5-2.4.75l-4.81,1.53c-1.59.53-3.17,1.11-4.77,1.67-1.59.56-3.19,1.11-4.75,1.75l-4.73,1.85-4.67,1.99-2.35,1.02-2.31,1.08c-1.53.73-3.1,1.41-4.62,2.18-12.23,6.03-24.07,13.21-35.14,21.66-4.26,3.26-8.41,6.72-12.41,10.36,0-.02.02-.03.03-.05t0-.02c8.44-18.5,20.54-35.62,33.32-50.5,16.42-19.13,33.96-34.57,46.28-44.48L112.53.12h6.11s101.73-.12,101.73-.12Z"/>
  </g>
  <g>
    <path class="uuid-af25c30c-961b-4165-95ad-eea58f7b7aec" d="M299.39,155.53c-7.09,0-13.69-.52-19.83-1.57-6.14-1.05-11.52-2.84-16.16-5.39-4.64-2.54-8.28-6.08-10.93-10.63-2.64-4.54-3.97-10.25-3.97-17.14v-.82c0-.35.05-.72.15-1.12h31.28c-.1.4-.15.77-.15,1.12v.97c0,2.99.7,5.29,2.1,6.88,1.4,1.6,3.37,2.67,5.91,3.22,2.54.55,5.41.82,8.61.82,1.2,0,2.47-.02,3.82-.07,1.35-.05,2.64-.2,3.89-.45,1.25-.25,2.39-.62,3.44-1.12s1.87-1.17,2.47-2.02c.6-.85.9-1.92.9-3.22,0-1.89-.85-3.39-2.54-4.49-1.7-1.1-3.99-2.04-6.88-2.84-2.89-.8-6.14-1.55-9.73-2.25-3.59-.7-7.33-1.52-11.23-2.47-3.89-.95-7.63-2.17-11.22-3.67-3.59-1.5-6.83-3.42-9.73-5.76-2.89-2.34-5.19-5.29-6.88-8.83-1.7-3.54-2.54-7.81-2.54-12.8,0-5.99,1.25-11.07,3.74-15.26,2.49-4.19,5.91-7.58,10.25-10.18,4.34-2.59,9.28-4.49,14.82-5.69,5.54-1.2,11.35-1.8,17.43-1.8s12,.62,17.44,1.87c5.44,1.25,10.25,3.17,14.44,5.76,4.19,2.59,7.48,5.89,9.88,9.88,2.39,3.99,3.64,8.73,3.74,14.22v1.8h-30.98v-.6c0-1.8-.45-3.49-1.35-5.09s-2.32-2.89-4.27-3.89-4.52-1.5-7.71-1.5c-2.99,0-5.51.3-7.56.9s-3.57,1.42-4.56,2.47c-1,1.05-1.5,2.17-1.5,3.37,0,1.9.85,3.44,2.54,4.64,1.7,1.2,3.99,2.2,6.88,2.99,2.89.8,6.14,1.55,9.73,2.25,3.59.7,7.33,1.47,11.23,2.32,3.89.85,7.63,1.97,11.22,3.37,3.59,1.4,6.83,3.22,9.73,5.46,2.89,2.25,5.19,5.01,6.88,8.31,1.7,3.29,2.54,7.33,2.54,12.12,0,8.48-1.97,15.37-5.91,20.65-3.94,5.29-9.33,9.15-16.16,11.6-6.83,2.44-14.59,3.67-23.27,3.67Z"/>
    <path class="uuid-af25c30c-961b-4165-95ad-eea58f7b7aec" d="M361.2,153.73V50.77h64.5c7.68,0,14.09,1.55,19.23,4.64,5.14,3.09,9,7.13,11.6,12.12,2.59,4.99,3.89,10.38,3.89,16.16,0,6.59-1.55,12.45-4.64,17.58-3.09,5.14-7.28,9.26-12.57,12.35l20.2,40.11h-37.11l-15.71-34.57h-16.31v34.57h-33.07ZM394.27,96.26h23.2c2.59,0,4.79-1.02,6.59-3.07,1.8-2.04,2.69-4.76,2.69-8.16,0-2.1-.4-3.94-1.2-5.54-.8-1.6-1.9-2.87-3.29-3.82-1.4-.95-2.99-1.42-4.79-1.42h-23.2v22Z"/>
    <path class="uuid-af25c30c-961b-4165-95ad-eea58f7b7aec" d="M502.32,153.73v-76.62h-33.82v-26.34h100.57v26.34h-33.67v76.62h-33.07Z"/>
  </g>
  <g>
    <path class="uuid-af25c30c-961b-4165-95ad-eea58f7b7aec" d="M254.65,188.01v-22.2h11.65c1.47,0,2.68.27,3.64.82s1.68,1.3,2.17,2.25.73,2.03.73,3.24c0,1.57-.36,2.91-1.09,3.99-.72,1.09-1.68,1.86-2.86,2.31l4.73,9.58h-2.82l-4.43-9.13h-9.16v9.13h-2.56ZM257.21,176.69h8.83c1.32,0,2.35-.4,3.11-1.21.75-.81,1.13-1.93,1.13-3.35,0-.86-.16-1.6-.49-2.2-.32-.6-.8-1.07-1.42-1.41-.63-.33-1.4-.5-2.33-.5h-8.83v8.67Z"/>
    <path class="uuid-af25c30c-961b-4165-95ad-eea58f7b7aec" d="M283.9,188.4c-1.62,0-2.99-.32-4.11-.95-1.12-.64-1.97-1.61-2.56-2.93s-.87-2.99-.87-5.01.29-3.73.87-5.03,1.45-2.28,2.59-2.91c1.14-.64,2.57-.95,4.27-.95,1.57,0,2.89.31,3.96.94s1.88,1.53,2.43,2.72c.55,1.19.83,2.64.83,4.37v1.49h-12.52c0,1.49.2,2.71.61,3.66s1,1.64,1.76,2.06c.76.42,1.71.63,2.83.63.82,0,1.54-.11,2.15-.32.62-.21,1.12-.51,1.52-.89.4-.38.71-.82.92-1.35.21-.52.32-1.05.32-1.62h2.27c0,.84-.16,1.63-.47,2.38s-.77,1.4-1.36,1.96c-.59.56-1.34,1-2.25,1.31s-1.97.47-3.2.47ZM278.79,178.27h10.09c0-1.08-.12-1.98-.37-2.7-.25-.72-.59-1.3-1.02-1.75-.43-.44-.94-.76-1.54-.95-.59-.19-1.26-.29-1.99-.29-1.06,0-1.96.2-2.72.6-.76.4-1.33,1.02-1.73,1.86-.4.84-.64,1.92-.73,3.24Z"/>
    <path class="uuid-af25c30c-961b-4165-95ad-eea58f7b7aec" d="M295.45,188.01v-15.04h-2.52v-1.97h2.52v-2.98c0-.6.09-1.19.27-1.75.18-.56.52-1.02,1.02-1.38.5-.35,1.2-.53,2.1-.53.28,0,.56.01.84.03s.55.05.79.1c.25.05.47.11.66.2v1.65h-1.71c-.56,0-.98.14-1.25.42-.27.28-.41.69-.41,1.23v3.01h3.37v1.97h-3.37v15.04h-2.33Z"/>
    <path class="uuid-af25c30c-961b-4165-95ad-eea58f7b7aec" d="M303.51,188.01v-17.02h1.88l.19,2.84h.23c.15-.52.38-1.02.68-1.52s.71-.9,1.23-1.23c.52-.32,1.18-.48,1.97-.48.3,0,.58.02.84.08s.45.1.58.15v2.14h-1c-.76,0-1.4.13-1.94.4s-.98.65-1.33,1.15c-.35.5-.6,1.07-.76,1.7-.16.64-.24,1.3-.24,1.99v9.8h-2.33Z"/>
    <path class="uuid-af25c30c-961b-4165-95ad-eea58f7b7aec" d="M313.77,167.5v-2.88h2.33v2.88h-2.33ZM313.77,188.01v-17.02h2.33v17.02h-2.33Z"/>
    <path class="uuid-af25c30c-961b-4165-95ad-eea58f7b7aec" d="M323.57,193.9c-.82,0-1.58-.18-2.28-.53-.7-.36-1.26-.85-1.67-1.49-.41-.63-.61-1.37-.61-2.22,0-.95.25-1.76.76-2.42.51-.67,1.15-1.17,1.93-1.49-.56-.24-.99-.59-1.3-1.07s-.45-.99-.45-1.55c0-.73.27-1.37.81-1.9.54-.52,1.2-.87,1.97-1.05-.71-.47-1.28-1.08-1.7-1.81s-.63-1.52-.63-2.36c0-1.06.25-1.99.75-2.8.5-.81,1.25-1.45,2.25-1.91,1-.47,2.26-.7,3.77-.7.71,0,1.37.05,1.99.16s1.17.27,1.67.49c.76-.28,1.34-.68,1.75-1.21s.68-1.12.81-1.77h2.33c-.02.6-.17,1.19-.45,1.75-.28.56-.67,1.03-1.16,1.42-.5.39-1.09.64-1.78.75.56.52.97,1.1,1.23,1.75.26.65.39,1.34.39,2.07,0,1.01-.24,1.92-.73,2.73-.49.81-1.22,1.45-2.2,1.93-.98.47-2.24.71-3.77.71h-2.69c-.65,0-1.18.12-1.58.37-.41.25-.61.66-.61,1.25,0,.5.21.88.65,1.17.43.28.97.42,1.62.42h6.67c1.25,0,2.27.42,3.06,1.26.79.84,1.18,1.9,1.18,3.17,0,.9-.23,1.73-.68,2.47-.45.75-1.07,1.33-1.86,1.77-.79.43-1.71.65-2.77.65h-6.63ZM324.09,192.05h6.05c.56,0,1.07-.12,1.52-.35.45-.24.81-.57,1.09-.99.27-.42.4-.87.4-1.35,0-.82-.24-1.47-.71-1.97-.47-.5-1.07-.74-1.78-.74h-6.57c-.74,0-1.37.26-1.91.79s-.81,1.17-.81,1.92c0,.82.26,1.47.79,1.96.53.49,1.17.73,1.93.73ZM327.16,179.53c1.51,0,2.63-.32,3.35-.96.72-.63,1.08-1.49,1.08-2.57s-.36-1.97-1.08-2.61c-.72-.63-1.84-.95-3.35-.95s-2.57.32-3.3.95c-.73.64-1.1,1.51-1.1,2.61,0,.67.16,1.27.49,1.81.32.54.81.96,1.47,1.26.66.3,1.47.45,2.44.45Z"/>
    <path class="uuid-af25c30c-961b-4165-95ad-eea58f7b7aec" d="M344.7,188.4c-1.62,0-2.99-.32-4.11-.95-1.12-.64-1.97-1.61-2.56-2.93s-.87-2.99-.87-5.01.29-3.73.87-5.03,1.45-2.28,2.59-2.91c1.14-.64,2.57-.95,4.27-.95,1.57,0,2.89.31,3.96.94s1.88,1.53,2.43,2.72c.55,1.19.83,2.64.83,4.37v1.49h-12.52c0,1.49.2,2.71.61,3.66s1,1.64,1.76,2.06c.76.42,1.71.63,2.83.63.82,0,1.54-.11,2.15-.32.62-.21,1.12-.51,1.52-.89.4-.38.71-.82.92-1.35.21-.52.32-1.05.32-1.62h2.27c0,.84-.16,1.63-.47,2.38s-.77,1.4-1.36,1.96c-.59.56-1.34,1-2.25,1.31s-1.97.47-3.2.47ZM339.59,178.27h10.09c0-1.08-.12-1.98-.37-2.7-.25-.72-.59-1.3-1.02-1.75-.43-.44-.94-.76-1.54-.95-.59-.19-1.26-.29-1.99-.29-1.06,0-1.96.2-2.72.6-.76.4-1.33,1.02-1.73,1.86-.4.84-.64,1.92-.73,3.24Z"/>
    <path class="uuid-af25c30c-961b-4165-95ad-eea58f7b7aec" d="M355.64,188.01v-17.02h1.88l.19,2.84h.23c.15-.52.38-1.02.68-1.52s.71-.9,1.23-1.23c.52-.32,1.18-.48,1.97-.48.3,0,.58.02.84.08s.45.1.58.15v2.14h-1c-.76,0-1.4.13-1.94.4s-.98.65-1.33,1.15c-.35.5-.6,1.07-.76,1.7-.16.64-.24,1.3-.24,1.99v9.8h-2.33Z"/>
    <path class="uuid-af25c30c-961b-4165-95ad-eea58f7b7aec" d="M369.81,188.4c-.67,0-1.33-.08-1.97-.24s-1.22-.42-1.73-.77c-.51-.36-.91-.84-1.21-1.44s-.45-1.35-.45-2.23c0-1.17.29-2.12.86-2.87.57-.74,1.37-1.32,2.41-1.75s2.26-.71,3.67-.86c1.41-.15,2.95-.22,4.61-.22v-2.17c0-.69-.12-1.28-.37-1.76-.25-.49-.68-.86-1.3-1.13-.61-.27-1.48-.4-2.6-.4s-1.93.14-2.56.42c-.62.28-1.06.64-1.31,1.08s-.37.93-.37,1.47v.52h-2.23c-.02-.11-.03-.22-.03-.32v-.39c0-1.08.28-1.96.84-2.65.56-.69,1.36-1.21,2.39-1.55,1.04-.35,2.22-.52,3.56-.52s2.5.2,3.43.6c.93.4,1.64.97,2.14,1.7.5.73.74,1.62.74,2.65v9.77c0,.41.08.7.24.86.16.16.38.24.66.24h1.36v1.49c-.32.13-.66.24-1.02.32-.35.09-.73.13-1.12.13-.56,0-1.01-.12-1.34-.35-.34-.24-.57-.57-.71-1-.14-.43-.23-.9-.27-1.42h-.23c-.41.58-.93,1.09-1.57,1.51-.64.42-1.33.74-2.09.97-.75.22-1.56.34-2.43.34ZM370.29,186.42c.71,0,1.4-.12,2.07-.35s1.27-.57,1.81-.99.98-.92,1.31-1.5c.33-.58.5-1.23.5-1.94v-1.75c-2.01,0-3.68.11-5.03.32-1.35.22-2.36.59-3.04,1.13-.68.54-1.02,1.29-1.02,2.26,0,.65.15,1.18.44,1.6.29.42.7.73,1.21.92.52.2,1.1.29,1.75.29Z"/>
    <path class="uuid-af25c30c-961b-4165-95ad-eea58f7b7aec" d="M389.22,188.4c-1.57,0-2.91-.32-4-.97-1.09-.65-1.91-1.63-2.48-2.94-.56-1.32-.84-2.97-.84-4.98s.28-3.64.84-4.95c.56-1.32,1.4-2.3,2.51-2.96,1.11-.65,2.48-.98,4.09-.98,1.18,0,2.2.15,3.03.47.83.31,1.51.76,2.04,1.35.53.58.91,1.28,1.15,2.1.24.82.36,1.74.36,2.75h-2.3c0-1.1-.15-1.99-.44-2.67s-.76-1.19-1.39-1.52c-.64-.33-1.47-.5-2.51-.5-.97,0-1.83.22-2.57.65-.75.43-1.33,1.12-1.75,2.05s-.63,2.22-.63,3.84v.77c0,1.53.19,2.78.58,3.74.39.96.96,1.67,1.7,2.12s1.63.68,2.67.68,1.93-.19,2.57-.57c.64-.37,1.1-.92,1.37-1.62.28-.7.42-1.54.42-2.51h2.27c0,.9-.12,1.76-.36,2.57-.24.81-.62,1.52-1.15,2.12-.53.6-1.22,1.09-2.07,1.44s-1.89.53-3.12.53Z"/>
    <path class="uuid-af25c30c-961b-4165-95ad-eea58f7b7aec" d="M399.35,167.5v-2.88h2.33v2.88h-2.33ZM399.35,188.01v-17.02h2.33v17.02h-2.33Z"/>
    <path class="uuid-af25c30c-961b-4165-95ad-eea58f7b7aec" d="M412.97,188.4c-1.64,0-3.04-.32-4.19-.95s-2.03-1.61-2.62-2.93-.89-2.99-.89-5.01.3-3.73.89-5.03,1.47-2.28,2.62-2.91c1.15-.64,2.55-.95,4.19-.95s3.09.32,4.22.95c1.13.63,2,1.61,2.59,2.91s.89,2.98.89,5.03-.3,3.7-.89,5.01-1.46,2.29-2.59,2.93-2.54.95-4.22.95ZM412.97,186.42c1.14,0,2.1-.22,2.88-.68s1.37-1.16,1.78-2.12c.41-.96.61-2.2.61-3.74v-.77c0-1.53-.21-2.78-.61-3.74-.41-.96-1-1.67-1.78-2.12-.78-.45-1.74-.68-2.88-.68s-2.1.23-2.88.68c-.78.45-1.37,1.16-1.78,2.12-.41.96-.61,2.21-.61,3.74v.77c0,1.53.2,2.78.61,3.74.41.96,1,1.67,1.78,2.12.77.45,1.73.68,2.88.68ZM411.48,168.89l2.88-4.27h2.82l.03.1-3.62,4.17h-2.1Z"/>
    <path class="uuid-af25c30c-961b-4165-95ad-eea58f7b7aec" d="M424.23,188.01v-17.02h1.84l.23,2.69h.23c.47-.78,1.01-1.39,1.62-1.83.6-.44,1.26-.76,1.96-.96.7-.19,1.45-.29,2.25-.29,1.08,0,2.02.17,2.83.53.81.35,1.44.93,1.89,1.73.45.8.68,1.89.68,3.27v11.87h-2.33v-11.65c0-.75-.1-1.37-.29-1.85-.2-.47-.46-.85-.81-1.12-.35-.27-.75-.45-1.21-.56-.46-.11-.98-.16-1.54-.16-.86,0-1.68.21-2.44.63-.76.42-1.38,1.02-1.86,1.8-.47.78-.71,1.73-.71,2.85v10.06h-2.33Z"/>
    <path class="uuid-af25c30c-961b-4165-95ad-eea58f7b7aec" d="M449.73,188.01v-22.2h2.56v22.2h-2.56Z"/>
    <path class="uuid-af25c30c-961b-4165-95ad-eea58f7b7aec" d="M457.46,188.01v-17.02h1.84l.23,2.69h.23c.47-.78,1.01-1.39,1.62-1.83.6-.44,1.26-.76,1.96-.96.7-.19,1.45-.29,2.25-.29,1.08,0,2.02.17,2.83.53.81.35,1.44.93,1.89,1.73.45.8.68,1.89.68,3.27v11.87h-2.33v-11.65c0-.75-.1-1.37-.29-1.85-.2-.47-.46-.85-.81-1.12-.35-.27-.75-.45-1.21-.56-.46-.11-.98-.16-1.54-.16-.86,0-1.68.21-2.44.63-.76.42-1.38,1.02-1.86,1.8-.47.78-.71,1.73-.71,2.85v10.06h-2.33Z"/>
    <path class="uuid-af25c30c-961b-4165-95ad-eea58f7b7aec" d="M481.11,188.4c-1.4,0-2.61-.31-3.62-.94s-1.78-1.6-2.31-2.93c-.53-1.33-.79-3.06-.79-5.19,0-2.01.27-3.65.81-4.94.54-1.28,1.31-2.24,2.31-2.86,1-.62,2.18-.94,3.54-.94.73,0,1.42.08,2.07.26.65.17,1.23.45,1.75.82.52.37.97.88,1.36,1.5h.19v-8.58h2.33v23.4h-1.81l-.26-2.49h-.23c-.6.97-1.37,1.69-2.31,2.17s-1.95.71-3.03.71ZM481.5,186.36c1.16,0,2.11-.26,2.83-.78.72-.52,1.25-1.26,1.58-2.23.34-.97.5-2.16.5-3.56v-.58c0-1.34-.14-2.44-.4-3.3-.27-.87-.64-1.53-1.1-2.01-.46-.47-.98-.8-1.54-.99-.56-.18-1.13-.27-1.72-.27-1.08,0-1.98.22-2.7.66s-1.26,1.14-1.62,2.09-.53,2.19-.53,3.72v.81c0,1.6.19,2.86.58,3.8.39.94.93,1.61,1.63,2.02.7.41,1.53.62,2.48.62Z"/>
    <path class="uuid-af25c30c-961b-4165-95ad-eea58f7b7aec" d="M498.55,188.4c-1.62,0-2.92-.41-3.92-1.23-.99-.82-1.49-2.25-1.49-4.3v-11.87h2.33v11.65c0,.76.1,1.37.29,1.85.2.47.46.85.81,1.12.34.27.75.46,1.21.57.46.11.96.16,1.5.16.86,0,1.68-.21,2.44-.63s1.38-1.02,1.86-1.81.71-1.73.71-2.83v-10.06h2.33v17.02h-1.81l-.26-2.69h-.23c-.47.78-1.01,1.39-1.6,1.83-.59.44-1.24.76-1.94.95-.7.2-1.45.29-2.25.29Z"/>
    <path class="uuid-af25c30c-961b-4165-95ad-eea58f7b7aec" d="M516.87,188.4c-1.12,0-2.12-.11-2.98-.34-.86-.23-1.58-.56-2.15-1-.57-.44-1-.97-1.3-1.6-.29-.62-.44-1.35-.44-2.17v-.27c0-.1.01-.19.03-.27h2.3c-.02.11-.03.2-.03.27v.21c.02.84.23,1.5.61,1.96.39.47.94.8,1.65.99.71.2,1.53.29,2.46.29.8,0,1.52-.11,2.15-.34.64-.23,1.14-.56,1.52-.99.38-.43.57-.96.57-1.59,0-.8-.24-1.4-.73-1.81s-1.12-.73-1.89-.95c-.78-.23-1.58-.47-2.43-.73-.69-.2-1.37-.4-2.04-.63-.67-.22-1.28-.51-1.83-.85-.55-.35-.99-.79-1.31-1.33-.32-.54-.49-1.22-.49-2.04,0-.71.15-1.35.44-1.91.29-.56.71-1.04,1.26-1.44.55-.4,1.22-.71,2.02-.92.8-.22,1.7-.32,2.72-.32,1.12,0,2.08.13,2.88.39.8.26,1.44.61,1.94,1.05.5.44.86.94,1.1,1.49.24.55.36,1.12.36,1.73,0,.09,0,.18-.02.29s-.02.2-.02.29h-2.3v-.42c0-.45-.11-.9-.34-1.32-.23-.43-.62-.8-1.2-1.1-.57-.3-1.42-.45-2.54-.45-.67,0-1.25.06-1.73.17-.49.12-.9.29-1.23.5-.34.22-.58.48-.74.79-.16.31-.24.67-.24,1.08,0,.63.2,1.11.6,1.44.4.33.92.6,1.57.81.65.21,1.34.43,2.07.67.73.21,1.48.44,2.25.68s1.47.53,2.12.87c.65.35,1.16.8,1.55,1.38.39.57.58,1.32.58,2.25,0,.87-.17,1.62-.52,2.28-.35.66-.82,1.2-1.42,1.63-.6.43-1.32.76-2.15.97-.83.21-1.73.32-2.7.32Z"/>
    <path class="uuid-af25c30c-961b-4165-95ad-eea58f7b7aec" d="M530.98,188.36c-.78,0-1.4-.14-1.86-.42-.46-.28-.79-.67-.97-1.16s-.27-1.05-.27-1.65v-12.17h-2.3v-1.97h2.3l.45-4.72h1.88v4.72h3.27v1.97h-3.27v11.75c0,.58.08,1.01.24,1.29.16.28.52.42,1.08.42h1.94v1.49c-.21.08-.47.17-.76.24s-.59.13-.89.16-.58.05-.84.05Z"/>
    <path class="uuid-af25c30c-961b-4165-95ad-eea58f7b7aec" d="M536.57,188.01v-17.02h1.88l.19,2.84h.23c.15-.52.38-1.02.68-1.52s.71-.9,1.23-1.23c.52-.32,1.18-.48,1.97-.48.3,0,.58.02.84.08s.45.1.58.15v2.14h-1c-.76,0-1.4.13-1.94.4s-.98.65-1.33,1.15c-.35.5-.6,1.07-.76,1.7-.16.64-.24,1.3-.24,1.99v9.8h-2.33Z"/>
    <path class="uuid-af25c30c-961b-4165-95ad-eea58f7b7aec" d="M546.83,167.5v-2.88h2.33v2.88h-2.33ZM546.83,188.01v-17.02h2.33v17.02h-2.33Z"/>
    <path class="uuid-af25c30c-961b-4165-95ad-eea58f7b7aec" d="M557.96,188.4c-.67,0-1.33-.08-1.97-.24s-1.22-.42-1.73-.77c-.51-.36-.91-.84-1.21-1.44s-.45-1.35-.45-2.23c0-1.17.29-2.12.86-2.87.57-.74,1.37-1.32,2.41-1.75s2.26-.71,3.67-.86c1.41-.15,2.95-.22,4.61-.22v-2.17c0-.69-.12-1.28-.37-1.76-.25-.49-.68-.86-1.3-1.13-.61-.27-1.48-.4-2.6-.4s-1.93.14-2.56.42c-.62.28-1.06.64-1.31,1.08s-.37.93-.37,1.47v.52h-2.23c-.02-.11-.03-.22-.03-.32v-.39c0-1.08.28-1.96.84-2.65.56-.69,1.36-1.21,2.39-1.55,1.04-.35,2.22-.52,3.56-.52s2.5.2,3.43.6c.93.4,1.64.97,2.14,1.7.5.73.74,1.62.74,2.65v9.77c0,.41.08.7.24.86.16.16.38.24.66.24h1.36v1.49c-.32.13-.66.24-1.02.32-.35.09-.73.13-1.12.13-.56,0-1.01-.12-1.34-.35-.34-.24-.57-.57-.71-1-.14-.43-.23-.9-.27-1.42h-.23c-.41.58-.93,1.09-1.57,1.51-.64.42-1.33.74-2.09.97-.75.22-1.56.34-2.43.34ZM558.45,186.42c.71,0,1.4-.12,2.07-.35s1.27-.57,1.81-.99.98-.92,1.31-1.5c.33-.58.5-1.23.5-1.94v-1.75c-2.01,0-3.68.11-5.03.32-1.35.22-2.36.59-3.04,1.13-.68.54-1.02,1.29-1.02,2.26,0,.65.15,1.18.44,1.6.29.42.7.73,1.21.92.52.2,1.1.29,1.75.29Z"/>
    <path class="uuid-af25c30c-961b-4165-95ad-eea58f7b7aec" d="M571.16,188.01v-23.4h2.33v23.4h-2.33Z"/>
  </g>
</svg>