<?xml version="1.0" encoding="UTF-8"?>
<svg id="uuid-5f9bfdd4-c98f-4c16-8feb-c3ba1d9d8927" data-name="Layer 2" xmlns="http://www.w3.org/2000/svg" viewBox="0 0 573.49 227.13">
  <defs>
    <style>
      .uuid-2715f469-b909-4585-b154-45540316f513 {
        fill: #1d1d1b;
      }
    </style>
  </defs>
  <g>
    <path class="uuid-2715f469-b909-4585-b154-45540316f513" d="M297.06,155.88c-7.15,0-13.81-.53-20-1.59-6.19-1.05-11.62-2.87-16.3-5.43-4.68-2.57-8.35-6.14-11.02-10.72-2.67-4.58-4-10.34-4-17.28v-.83c0-.35.05-.73.15-1.13h31.54c-.1.4-.15.78-.15,1.13v.98c0,3.02.7,5.33,2.11,6.94,1.41,1.61,3.39,2.69,5.96,3.24,2.57.56,5.46.83,8.68.83,1.21,0,2.49-.02,3.85-.07s2.67-.2,3.92-.45c1.26-.25,2.42-.63,3.47-1.13,1.06-.5,1.89-1.18,2.49-2.04.6-.85.91-1.94.91-3.24,0-1.91-.86-3.42-2.57-4.53-1.71-1.11-4.03-2.06-6.94-2.87-2.92-.81-6.19-1.56-9.81-2.27-3.62-.7-7.4-1.53-11.32-2.49-3.92-.95-7.7-2.19-11.32-3.7-3.62-1.51-6.89-3.44-9.81-5.81-2.92-2.36-5.23-5.33-6.94-8.9-1.71-3.57-2.57-7.87-2.57-12.91,0-6.04,1.26-11.17,3.77-15.39,2.51-4.23,5.96-7.65,10.34-10.26,4.38-2.62,9.36-4.53,14.94-5.74,5.58-1.21,11.44-1.81,17.58-1.81s12.1.63,17.58,1.89c5.48,1.26,10.34,3.19,14.56,5.81s7.55,5.94,9.96,9.96c2.41,4.03,3.67,8.81,3.77,14.34v1.81h-31.24v-.6c0-1.81-.45-3.52-1.36-5.13-.9-1.61-2.34-2.92-4.3-3.93-1.96-1-4.55-1.51-7.77-1.51-3.02,0-5.56.3-7.62.9-2.06.6-3.6,1.44-4.6,2.49-1.01,1.06-1.51,2.19-1.51,3.4,0,1.91.85,3.47,2.57,4.68,1.71,1.21,4.02,2.22,6.94,3.02,2.92.8,6.19,1.56,9.81,2.26,3.62.7,7.4,1.49,11.32,2.34,3.93.85,7.7,1.99,11.32,3.39,3.62,1.41,6.89,3.24,9.81,5.51,2.92,2.26,5.23,5.05,6.94,8.38,1.71,3.32,2.57,7.39,2.57,12.22,0,8.55-1.99,15.49-5.96,20.83-3.98,5.34-9.41,9.23-16.3,11.7s-14.71,3.7-23.47,3.7Z"/>
    <path class="uuid-2715f469-b909-4585-b154-45540316f513" d="M359.38,154.07V50.24h65.05c7.75,0,14.21,1.56,19.39,4.68,5.18,3.12,9.08,7.19,11.7,12.22,2.62,5.03,3.92,10.47,3.92,16.3,0,6.64-1.56,12.55-4.68,17.74-3.12,5.18-7.35,9.33-12.68,12.45l20.37,40.45h-37.43l-15.85-34.86h-16.45v34.86h-33.35ZM392.74,96.11h23.39c2.62,0,4.83-1.03,6.64-3.09,1.81-2.06,2.72-4.8,2.72-8.23,0-2.11-.4-3.97-1.21-5.58-.81-1.61-1.91-2.89-3.32-3.85-1.41-.96-3.02-1.43-4.83-1.43h-23.39v22.18Z"/>
    <path class="uuid-2715f469-b909-4585-b154-45540316f513" d="M501.7,154.07v-77.27h-34.11v-26.56h101.42v26.56h-33.96v77.27h-33.35Z"/>
  </g>
  <g>
    <path class="uuid-2715f469-b909-4585-b154-45540316f513" d="M251.94,188.65v-22.38h11.75c1.48,0,2.7.27,3.67.83.97.56,1.7,1.31,2.19,2.27s.74,2.05.74,3.26c0,1.59-.36,2.93-1.09,4.03s-1.69,1.87-2.89,2.33l4.76,9.66h-2.84l-4.47-9.2h-9.23v9.2h-2.58ZM254.52,177.23h8.91c1.33,0,2.37-.41,3.13-1.22.76-.82,1.14-1.94,1.14-3.38,0-.87-.16-1.61-.49-2.22-.33-.61-.81-1.08-1.44-1.42s-1.41-.51-2.35-.51h-8.91v8.75Z"/>
    <path class="uuid-2715f469-b909-4585-b154-45540316f513" d="M281.44,189.04c-1.63,0-3.01-.32-4.14-.96-1.13-.64-1.99-1.62-2.58-2.95s-.88-3.01-.88-5.06.29-3.76.88-5.08,1.46-2.29,2.61-2.94c1.15-.64,2.59-.96,4.31-.96,1.59,0,2.92.32,4,.95,1.08.63,1.89,1.55,2.45,2.74.56,1.2.83,2.67.83,4.41v1.5h-12.63c0,1.5.21,2.73.62,3.69.41.96,1.01,1.65,1.78,2.07.77.42,1.72.64,2.86.64.82,0,1.55-.11,2.17-.32.62-.22,1.13-.52,1.53-.9.4-.38.71-.83.93-1.35.22-.52.32-1.07.32-1.63h2.28c0,.85-.16,1.65-.47,2.4-.32.75-.77,1.41-1.37,1.97-.6.57-1.36,1.01-2.27,1.32-.91.32-1.99.47-3.23.47ZM276.28,178.83h10.18c0-1.09-.13-2-.38-2.72s-.59-1.32-1.03-1.76-.95-.77-1.55-.96c-.6-.2-1.27-.3-2.01-.3-1.07,0-1.98.2-2.74.6-.76.4-1.34,1.03-1.75,1.87-.4.85-.65,1.94-.73,3.27Z"/>
    <path class="uuid-2715f469-b909-4585-b154-45540316f513" d="M293.09,188.65v-15.17h-2.55v-1.99h2.55v-3c0-.61.09-1.2.28-1.76.18-.56.53-1.02,1.03-1.39.5-.36,1.21-.54,2.12-.54.28,0,.56.01.85.03s.55.05.8.1c.25.05.47.11.67.2v1.67h-1.73c-.57,0-.99.14-1.26.42-.27.28-.41.7-.41,1.24v3.03h3.39v1.99h-3.39v15.17h-2.35Z"/>
    <path class="uuid-2715f469-b909-4585-b154-45540316f513" d="M301.21,188.65v-17.16h1.89l.2,2.87h.23c.15-.52.38-1.03.69-1.54.3-.5.72-.91,1.24-1.24.52-.33,1.18-.49,1.99-.49.3,0,.59.03.85.08s.46.1.59.15v2.15h-1.01c-.76,0-1.41.14-1.96.41s-.99.66-1.34,1.16c-.35.5-.6,1.07-.77,1.71-.16.64-.24,1.31-.24,2.01v9.89h-2.35Z"/>
    <path class="uuid-2715f469-b909-4585-b154-45540316f513" d="M311.56,167.96v-2.9h2.35v2.9h-2.35ZM311.56,188.65v-17.16h2.35v17.16h-2.35Z"/>
    <path class="uuid-2715f469-b909-4585-b154-45540316f513" d="M321.44,194.59c-.83,0-1.59-.18-2.3-.54-.71-.36-1.27-.86-1.68-1.5-.41-.64-.62-1.39-.62-2.23,0-.96.25-1.77.77-2.45.51-.67,1.16-1.17,1.94-1.5-.57-.24-1-.6-1.31-1.08-.3-.48-.46-1-.46-1.57,0-.74.27-1.37.82-1.91s1.21-.89,1.99-1.06c-.72-.48-1.29-1.09-1.71-1.83-.42-.74-.64-1.53-.64-2.38,0-1.06.25-2,.75-2.82.5-.82,1.26-1.46,2.27-1.92,1.01-.47,2.28-.7,3.8-.7.72,0,1.39.05,2.01.16s1.18.27,1.68.49c.76-.28,1.35-.69,1.76-1.22.41-.53.69-1.12.82-1.78h2.35c-.02.61-.17,1.2-.46,1.76-.28.57-.67,1.05-1.17,1.44s-1.1.64-1.79.75c.56.52.98,1.11,1.24,1.76s.39,1.35.39,2.09c0,1.02-.25,1.95-.74,2.76-.49.82-1.23,1.47-2.22,1.95s-2.26.72-3.8.72h-2.71c-.65,0-1.18.12-1.6.37-.41.25-.62.67-.62,1.26,0,.5.22.89.65,1.17s.98.42,1.63.42h6.72c1.26,0,2.29.42,3.08,1.27.79.85,1.19,1.92,1.19,3.2,0,.91-.23,1.75-.69,2.49-.46.75-1.08,1.35-1.88,1.78-.8.44-1.72.65-2.79.65h-6.69ZM321.96,192.73h6.1c.56,0,1.08-.12,1.53-.36.46-.24.82-.57,1.09-1s.41-.87.41-1.35c0-.83-.24-1.49-.72-1.99s-1.08-.75-1.8-.75h-6.62c-.74,0-1.38.27-1.93.8s-.81,1.18-.81,1.94c0,.82.26,1.49.8,1.97.53.49,1.18.73,1.94.73ZM325.06,180.1c1.52,0,2.65-.32,3.38-.96s1.09-1.5,1.09-2.59-.36-1.98-1.09-2.62-1.86-.96-3.38-.96-2.59.32-3.33.96-1.11,1.52-1.11,2.62c0,.67.16,1.29.49,1.83.33.55.82.97,1.48,1.27s1.48.45,2.46.45Z"/>
    <path class="uuid-2715f469-b909-4585-b154-45540316f513" d="M342.75,189.04c-1.63,0-3.01-.32-4.14-.96-1.13-.64-1.99-1.62-2.58-2.95s-.88-3.01-.88-5.06.29-3.76.88-5.08,1.46-2.29,2.61-2.94c1.15-.64,2.59-.96,4.31-.96,1.59,0,2.92.32,4,.95,1.08.63,1.89,1.55,2.45,2.74.56,1.2.83,2.67.83,4.41v1.5h-12.63c0,1.5.21,2.73.62,3.69.41.96,1.01,1.65,1.78,2.07.77.42,1.72.64,2.86.64.82,0,1.55-.11,2.17-.32.62-.22,1.13-.52,1.53-.9.4-.38.71-.83.93-1.35.22-.52.32-1.07.32-1.63h2.28c0,.85-.16,1.65-.47,2.4-.32.75-.77,1.41-1.37,1.97-.6.57-1.36,1.01-2.27,1.32-.91.32-1.99.47-3.23.47ZM337.59,178.83h10.18c0-1.09-.13-2-.38-2.72s-.59-1.32-1.03-1.76-.95-.77-1.55-.96c-.6-.2-1.27-.3-2.01-.3-1.07,0-1.98.2-2.74.6-.76.4-1.34,1.03-1.75,1.87-.4.85-.65,1.94-.73,3.27Z"/>
    <path class="uuid-2715f469-b909-4585-b154-45540316f513" d="M353.78,188.65v-17.16h1.89l.2,2.87h.23c.15-.52.38-1.03.69-1.54.3-.5.72-.91,1.24-1.24.52-.33,1.18-.49,1.99-.49.3,0,.59.03.85.08s.46.1.59.15v2.15h-1.01c-.76,0-1.41.14-1.96.41s-.99.66-1.34,1.16c-.35.5-.6,1.07-.77,1.71-.16.64-.24,1.31-.24,2.01v9.89h-2.35Z"/>
    <path class="uuid-2715f469-b909-4585-b154-45540316f513" d="M368.07,189.04c-.67,0-1.34-.08-1.99-.25-.65-.16-1.23-.42-1.75-.78-.51-.36-.92-.84-1.22-1.45s-.46-1.36-.46-2.25c0-1.17.29-2.14.87-2.89.57-.75,1.39-1.34,2.43-1.76,1.04-.42,2.28-.71,3.7-.87,1.42-.15,2.98-.23,4.65-.23v-2.19c0-.7-.12-1.29-.37-1.78-.25-.49-.69-.87-1.31-1.14s-1.5-.41-2.63-.41-1.95.14-2.58.42-1.07.65-1.32,1.09c-.25.45-.37.94-.37,1.49v.52h-2.25c-.02-.11-.03-.22-.03-.32v-.39c0-1.09.28-1.98.85-2.67.56-.7,1.37-1.22,2.41-1.57,1.05-.35,2.24-.52,3.59-.52s2.52.2,3.46.6,1.65.97,2.15,1.71c.5.74.75,1.63.75,2.68v9.85c0,.41.08.7.25.86.16.17.39.25.67.25h1.37v1.5c-.33.13-.67.24-1.03.33-.36.09-.74.13-1.13.13-.57,0-1.02-.12-1.35-.36s-.58-.57-.72-1.01c-.14-.43-.23-.91-.28-1.44h-.23c-.41.59-.94,1.1-1.58,1.52s-1.34.75-2.1.98c-.76.23-1.58.34-2.45.34ZM368.56,187.05c.72,0,1.41-.12,2.09-.36s1.28-.57,1.83-1c.54-.42.98-.93,1.32-1.52s.51-1.24.51-1.96v-1.76c-2.02,0-3.72.11-5.07.32-1.36.22-2.38.6-3.07,1.14-.69.55-1.03,1.3-1.03,2.29,0,.65.15,1.19.44,1.61s.7.74,1.22.93c.52.2,1.11.29,1.76.29Z"/>
    <path class="uuid-2715f469-b909-4585-b154-45540316f513" d="M387.65,189.04c-1.59,0-2.93-.32-4.03-.98s-1.93-1.64-2.5-2.97c-.56-1.32-.85-3-.85-5.02s.28-3.67.85-4.99c.57-1.33,1.41-2.32,2.53-2.99s2.49-1,4.13-1c1.2,0,2.21.16,3.05.47.84.31,1.52.77,2.06,1.35s.92,1.3,1.16,2.12c.24.83.36,1.75.36,2.77h-2.32c0-1.11-.15-2.01-.44-2.69-.29-.69-.76-1.2-1.4-1.54-.64-.33-1.48-.5-2.53-.5-.98,0-1.85.22-2.59.65-.75.43-1.34,1.12-1.76,2.07-.42.95-.64,2.24-.64,3.87v.78c0,1.54.2,2.8.59,3.77.39.97.96,1.68,1.71,2.14.75.45,1.65.68,2.69.68s1.95-.19,2.59-.57,1.1-.92,1.39-1.63c.28-.7.42-1.55.42-2.53h2.28c0,.91-.12,1.78-.36,2.59s-.62,1.53-1.16,2.14-1.23,1.1-2.09,1.45-1.91.54-3.15.54Z"/>
    <path class="uuid-2715f469-b909-4585-b154-45540316f513" d="M397.86,167.96v-2.9h2.35v2.9h-2.35ZM397.86,188.65v-17.16h2.35v17.16h-2.35Z"/>
    <path class="uuid-2715f469-b909-4585-b154-45540316f513" d="M411.6,189.04c-1.65,0-3.06-.32-4.23-.96-1.16-.64-2.05-1.62-2.64-2.95-.6-1.33-.9-3.01-.9-5.06s.3-3.76.9-5.08c.6-1.32,1.48-2.29,2.64-2.94,1.16-.64,2.57-.96,4.23-.96s3.12.32,4.26.96c1.14.64,2.01,1.62,2.61,2.94s.9,3.01.9,5.08-.3,3.73-.9,5.06-1.47,2.31-2.61,2.95c-1.14.64-2.56.96-4.26.96ZM411.6,187.05c1.15,0,2.12-.23,2.9-.68.78-.46,1.38-1.17,1.8-2.14.41-.97.62-2.22.62-3.77v-.78c0-1.55-.21-2.8-.62-3.77-.41-.97-1.01-1.68-1.8-2.14-.78-.46-1.75-.69-2.9-.69s-2.12.23-2.91.69c-.78.45-1.38,1.17-1.79,2.14-.41.97-.62,2.22-.62,3.77v.78c0,1.54.21,2.8.62,3.77.41.97,1.01,1.68,1.79,2.14.78.45,1.75.68,2.91.68ZM410.1,169.36l2.91-4.31h2.84l.03.1-3.65,4.21h-2.12Z"/>
    <path class="uuid-2715f469-b909-4585-b154-45540316f513" d="M422.95,188.65v-17.16h1.86l.23,2.71h.23c.48-.78,1.02-1.4,1.63-1.84.61-.45,1.27-.77,1.97-.96.71-.2,1.46-.3,2.27-.3,1.09,0,2.04.18,2.86.54.81.36,1.45.94,1.91,1.75.46.8.69,1.9.69,3.29v11.97h-2.35v-11.75c0-.76-.1-1.38-.29-1.86s-.47-.85-.82-1.12-.76-.46-1.22-.57c-.47-.11-.99-.16-1.55-.16-.87,0-1.69.21-2.46.63-.77.42-1.4,1.03-1.88,1.81-.48.78-.72,1.74-.72,2.87v10.15h-2.35Z"/>
    <path class="uuid-2715f469-b909-4585-b154-45540316f513" d="M448.67,188.65v-22.38h2.58v22.38h-2.58Z"/>
    <path class="uuid-2715f469-b909-4585-b154-45540316f513" d="M456.47,188.65v-17.16h1.86l.23,2.71h.23c.48-.78,1.02-1.4,1.63-1.84.61-.45,1.27-.77,1.97-.96.71-.2,1.46-.3,2.27-.3,1.09,0,2.04.18,2.86.54.81.36,1.45.94,1.91,1.75.46.8.69,1.9.69,3.29v11.97h-2.35v-11.75c0-.76-.1-1.38-.29-1.86s-.47-.85-.82-1.12-.76-.46-1.22-.57c-.47-.11-.99-.16-1.55-.16-.87,0-1.69.21-2.46.63-.77.42-1.4,1.03-1.88,1.81-.48.78-.72,1.74-.72,2.87v10.15h-2.35Z"/>
    <path class="uuid-2715f469-b909-4585-b154-45540316f513" d="M480.32,189.04c-1.41,0-2.63-.32-3.65-.95-1.02-.63-1.8-1.62-2.33-2.95-.53-1.34-.8-3.09-.8-5.24,0-2.02.27-3.68.81-4.97.54-1.3,1.32-2.26,2.33-2.89,1.01-.63,2.2-.95,3.57-.95.74,0,1.44.09,2.09.26.65.17,1.24.45,1.76.83.52.38.98.88,1.37,1.52h.2v-8.65h2.35v23.59h-1.83l-.26-2.51h-.23c-.61.98-1.39,1.71-2.33,2.19-.95.47-1.96.72-3.05.72ZM480.71,186.98c1.17,0,2.13-.26,2.86-.78.73-.52,1.26-1.27,1.6-2.25.34-.98.51-2.17.51-3.59v-.59c0-1.35-.14-2.46-.41-3.33-.27-.87-.64-1.55-1.11-2.02-.47-.48-.99-.81-1.55-1-.57-.18-1.14-.27-1.73-.27-1.09,0-2,.22-2.72.67s-1.27,1.15-1.63,2.11c-.36.95-.54,2.21-.54,3.75v.81c0,1.61.2,2.89.59,3.84s.94,1.62,1.65,2.04c.71.41,1.54.62,2.5.62Z"/>
    <path class="uuid-2715f469-b909-4585-b154-45540316f513" d="M497.91,189.04c-1.63,0-2.95-.41-3.95-1.24-1-.82-1.5-2.27-1.5-4.34v-11.97h2.35v11.75c0,.76.1,1.38.29,1.86s.47.85.81,1.12c.35.27.76.46,1.22.57.47.11.97.17,1.52.17.87,0,1.69-.21,2.46-.64.77-.42,1.4-1.03,1.87-1.83.48-.79.72-1.75.72-2.85v-10.15h2.35v17.16h-1.83l-.26-2.71h-.23c-.48.78-1.02,1.4-1.62,1.84-.6.45-1.25.77-1.96.97-.71.2-1.46.29-2.27.29Z"/>
    <path class="uuid-2715f469-b909-4585-b154-45540316f513" d="M516.38,189.04c-1.13,0-2.13-.11-3-.34s-1.59-.57-2.17-1.01-1.01-.98-1.3-1.62c-.29-.63-.44-1.36-.44-2.19v-.27c0-.1.01-.19.03-.28h2.32c-.02.11-.03.2-.03.28v.21c.02.85.23,1.5.62,1.97.39.47.95.8,1.66,1,.72.2,1.55.3,2.48.3.81,0,1.53-.11,2.17-.34s1.15-.56,1.53-1c.38-.44.57-.97.57-1.6,0-.8-.25-1.42-.74-1.83s-1.12-.73-1.91-.96-1.6-.47-2.45-.73c-.7-.2-1.38-.41-2.06-.64s-1.29-.52-1.84-.87c-.55-.35-1-.79-1.32-1.34-.32-.54-.49-1.23-.49-2.05,0-.72.15-1.36.44-1.93.29-.56.72-1.05,1.27-1.45.55-.4,1.23-.71,2.04-.93.81-.22,1.72-.32,2.74-.32,1.13,0,2.1.13,2.9.39.8.26,1.46.62,1.96,1.06s.87.95,1.11,1.5.36,1.14.36,1.75c0,.09,0,.19-.02.3-.01.11-.01.2-.01.29h-2.32v-.42c0-.45-.11-.9-.34-1.34-.23-.43-.63-.8-1.21-1.11-.58-.3-1.43-.46-2.56-.46-.67,0-1.26.06-1.75.18-.49.12-.9.29-1.24.51s-.59.48-.75.8c-.16.31-.25.68-.25,1.09,0,.63.2,1.12.6,1.45s.93.61,1.58.82c.65.2,1.35.43,2.09.67.74.22,1.5.45,2.27.69.77.24,1.48.53,2.14.88.65.35,1.17.81,1.57,1.39.39.58.59,1.33.59,2.27,0,.87-.17,1.64-.52,2.3-.35.66-.83,1.21-1.44,1.65-.61.43-1.33.76-2.17.98s-1.75.32-2.72.32Z"/>
    <path class="uuid-2715f469-b909-4585-b154-45540316f513" d="M530.6,189.01c-.78,0-1.41-.14-1.88-.42-.47-.28-.79-.67-.98-1.17-.19-.5-.28-1.05-.28-1.66v-12.27h-2.32v-1.99h2.32l.46-4.76h1.89v4.76h3.3v1.99h-3.3v11.85c0,.59.08,1.02.25,1.3s.53.42,1.09.42h1.96v1.5c-.22.09-.47.17-.77.25s-.59.13-.9.16c-.31.03-.59.05-.85.05Z"/>
    <path class="uuid-2715f469-b909-4585-b154-45540316f513" d="M536.25,188.65v-17.16h1.89l.2,2.87h.23c.15-.52.38-1.03.69-1.54.3-.5.72-.91,1.24-1.24.52-.33,1.18-.49,1.99-.49.3,0,.59.03.85.08s.46.1.59.15v2.15h-1.01c-.76,0-1.41.14-1.96.41s-.99.66-1.34,1.16c-.35.5-.6,1.07-.77,1.71-.16.64-.24,1.31-.24,2.01v9.89h-2.35Z"/>
    <path class="uuid-2715f469-b909-4585-b154-45540316f513" d="M546.59,167.96v-2.9h2.35v2.9h-2.35ZM546.59,188.65v-17.16h2.35v17.16h-2.35Z"/>
    <path class="uuid-2715f469-b909-4585-b154-45540316f513" d="M557.82,189.04c-.67,0-1.34-.08-1.99-.25-.65-.16-1.23-.42-1.75-.78-.51-.36-.92-.84-1.22-1.45s-.46-1.36-.46-2.25c0-1.17.29-2.14.87-2.89.57-.75,1.39-1.34,2.43-1.76,1.04-.42,2.28-.71,3.7-.87,1.42-.15,2.98-.23,4.65-.23v-2.19c0-.7-.12-1.29-.37-1.78-.25-.49-.69-.87-1.31-1.14s-1.5-.41-2.63-.41-1.95.14-2.58.42-1.07.65-1.32,1.09c-.25.45-.37.94-.37,1.49v.52h-2.25c-.02-.11-.03-.22-.03-.32v-.39c0-1.09.28-1.98.85-2.67.56-.7,1.37-1.22,2.41-1.57,1.05-.35,2.24-.52,3.59-.52s2.52.2,3.46.6,1.65.97,2.15,1.71c.5.74.75,1.63.75,2.68v9.85c0,.41.08.7.25.86.16.17.39.25.67.25h1.37v1.5c-.33.13-.67.24-1.03.33-.36.09-.74.13-1.13.13-.57,0-1.02-.12-1.35-.36s-.58-.57-.72-1.01c-.14-.43-.23-.91-.28-1.44h-.23c-.41.59-.94,1.1-1.58,1.52s-1.34.75-2.1.98c-.76.23-1.58.34-2.45.34ZM558.31,187.05c.72,0,1.41-.12,2.09-.36s1.28-.57,1.83-1c.54-.42.98-.93,1.32-1.52s.51-1.24.51-1.96v-1.76c-2.02,0-3.72.11-5.07.32-1.36.22-2.38.6-3.07,1.14-.69.55-1.03,1.3-1.03,2.29,0,.65.15,1.19.44,1.61s.7.74,1.22.93c.52.2,1.11.29,1.76.29Z"/>
    <path class="uuid-2715f469-b909-4585-b154-45540316f513" d="M571.13,188.65v-23.59h2.35v23.59h-2.35Z"/>
  </g>
  <path class="uuid-2715f469-b909-4585-b154-45540316f513" d="M54.13,143.56l11.29,19.51c1.06,1.59,2.6,2.42,4.24,2.42h.31l.59-.08c6.53-1.33,13.14-2.95,19.71-4.83l9.87-2.99c1.25-.48,2.25-.81,3.3-1.14l3.56-1.29c1.06-.38,2.12-.77,3.14-1.21l4.72-1.87,11.19-4.93c1.1-.49,2.14-.98,3.17-1.46,12.95-6.38,25.13-13.91,36.25-22.38.5-.38,1-.77,1.5-1.16l-.16.24c-.97,1.43-1.95,2.89-3,4.31-2.58,3.66-5.28,7.24-8.09,10.82l-1.03,1.27c-1.23,1.51-2.47,3.05-3.79,4.54-1.95,2.37-3.93,4.65-5.99,6.93-22.76,25.46-46.85,43.69-53.69,48.68-2.01,1.6-2.54,4.21-1.39,6.31l10.32,17.86-91.86.1,45.82-79.66Z"/>
  <path class="uuid-2715f469-b909-4585-b154-45540316f513" d="M13.03,165.44C4.49,149.57,0,131.78,0,113.54,0,54.78,47.27,6.04,105.76,3.95l8.32,14.35c-11.98,9.89-28.67,24.87-44.08,42.87-14.77,17.16-26.25,34.49-34.1,51.51l-.54.58v.46c-9.39,16.06-16.88,33.42-22.33,51.72Z"/>
  <path class="uuid-2715f469-b909-4585-b154-45540316f513" d="M100.49,204.18c11.76-8.9,32.16-25.56,51.71-47.4,16.78-18.74,29.66-37.72,38.27-56.42l.58-.55v-.65c6.36-12.34,11.24-25.26,14.57-38.52,8.75,16.03,13.35,34.04,13.35,52.54,0,59.8-48.15,108.58-107.75,109.62l-10.73-18.62Z"/>
  <path class="uuid-2715f469-b909-4585-b154-45540316f513" d="M56.9,94.78c1.16-1.81,2.32-3.61,3.6-5.4.91-1.35,1.85-2.68,2.77-3.96,1.26-1.81,2.6-3.61,3.94-5.35,1.61-2.14,3.25-4.19,4.95-6.31,1.7-2.11,3.41-4.17,5.23-6.28,16.27-19.02,34.02-34.56,46.04-44.26,1.84-1.3,2.41-4.08,1.13-6.21l-7.51-12.98,91.91-.11-45.88,79.61-12.96-22.38c-.71-1.42-2.35-2.42-4.19-2.42h-.31l-.64.09c-6.94,1.42-13.69,3.06-20.12,4.89l-2.5.71c-.47.11-1.15.34-1.75.56l-5.66,1.79c-.94.28-1.98.65-3.02,1.02l-2.74.97c-1.43.49-2.87,1-4.19,1.56l-4.73,1.87-11.31,4.99c-1.1.52-2.14,1.01-3.11,1.48-10.56,5.19-20.62,11.15-29.99,17.75.35-.55.7-1.09,1.05-1.64Z"/>
</svg>