<?xml version="1.0" encoding="UTF-8"?>
<svg id="uuid-3d5d8c0f-4417-4246-915b-9ce05648841c" data-name="Layer 4" xmlns="http://www.w3.org/2000/svg" viewBox="0 0 573.49 357.04">
  <defs>
    <style>
      .uuid-587e9aad-6ee5-4e02-bb4e-fc70faf0ae9f {
        fill: #14387f;
      }

      .uuid-eb275f00-33c1-4bec-8326-3768dca6267e {
        fill: #2580c3;
      }
    </style>
  </defs>
  <path class="uuid-587e9aad-6ee5-4e02-bb4e-fc70faf0ae9f" d="M418.48,153.85c-.06.11-.11.21-.17.32-14.66,32.15-36.35,61.64-58.75,86.66-34.2,38.23-70.04,66.03-84.9,76.92l22.37,38.65.27.46-169.51.19,84.59-146.89,24.17,41.76c10.1-2.06,20.15-4.52,30.12-7.37l3.82-1.08c1.27-.38,2.52-.79,3.77-1.19l7.57-2.4c2.52-.83,4.99-1.75,7.5-2.62,2.51-.89,5.02-1.76,7.47-2.75l7.44-2.92,7.35-3.13,3.68-1.58,3.63-1.69c2.41-1.15,4.88-2.23,7.27-3.44,19.22-9.48,37.83-20.76,55.22-34.04,8.69-6.66,17.06-13.8,25.04-21.45,3.98-3.83,7.89-7.78,11.6-11.89.15-.17.3-.33.45-.5Z"/>
  <path class="uuid-eb275f00-33c1-4bec-8326-3768dca6267e" d="M315.63,31.84c-19.37,15.58-46.95,39.84-72.76,69.92-20.1,23.4-39.12,50.3-52.39,79.39t-.01.02s-.04.05-.05.07c-20.98,35.77-32.84,70.51-39.49,97.13-19.27-28.5-30.51-62.86-30.51-99.85C120.43,79.93,200.35,0,298.95,0c2.67,0,5.33.06,7.97.18h-9.6s18.31,31.66,18.31,31.66Z"/>
  <path class="uuid-eb275f00-33c1-4bec-8326-3768dca6267e" d="M476.92,177.88c0,98.6-79.93,178.52-178.52,178.52-.45,0-.91,0-1.36-.01l-22.37-38.65c14.86-10.89,50.69-38.68,84.9-76.92,22.39-25.02,44.09-54.51,58.75-86.66.06-.11.11-.21.17-.32,15.19-29.12,22.79-56.3,26.53-77.83,20.12,28.88,31.91,64.01,31.91,101.86Z"/>
  <path class="uuid-587e9aad-6ee5-4e02-bb4e-fc70faf0ae9f" d="M466.83,0l-84.6,146.89-26.79-46.3c-10.32,2.09-20.59,4.59-30.79,7.51l-3.82,1.08c-1.27.37-2.51.79-3.77,1.18l-7.57,2.41c-2.51.83-4.98,1.75-7.5,2.62-2.49.89-5.01,1.75-7.47,2.75l-7.44,2.91-7.34,3.13-3.69,1.6-3.63,1.69c-2.41,1.15-4.87,2.22-7.26,3.43-19.22,9.48-37.84,20.76-55.23,34.05-6.7,5.13-13.22,10.56-19.51,16.28.01-.02.02-.05.05-.07t.01-.02c13.26-29.08,32.29-55.99,52.39-79.39,25.81-30.08,53.39-54.34,72.76-69.92L297.32.19h9.6s159.91-.19,159.91-.19Z"/>
</svg>